<svg width="20" height="20" viewBox="0 0 20 20" fill="none" xmlns="http://www.w3.org/2000/svg">
<path d="M6.66667 1.66675C7.1269 1.66675 7.5 2.03984 7.5 2.50008V3.75008H5.83333V2.50008C5.83333 2.03984 6.20643 1.66675 6.66667 1.66675Z" fill="#667185"/>
<path d="M12.5 4.16675H7.5V5.00008C7.5 5.46032 7.1269 5.83342 6.66667 5.83342C6.20643 5.83342 5.83333 5.46032 5.83333 5.00008V4.16675H5C3.61929 4.16675 2.5 5.28604 2.5 6.66675V7.08342H17.5V6.66675C17.5 5.28604 16.3807 4.16675 15 4.16675H14.1667V5.00008C14.1667 5.46032 13.7936 5.83342 13.3333 5.83342C12.8731 5.83342 12.5 5.46032 12.5 5.00008V4.16675Z" fill="#667185"/>
<path fill-rule="evenodd" clip-rule="evenodd" d="M2.5 8.75008V15.8334C2.5 17.2141 3.61929 18.3334 5 18.3334H15C16.3807 18.3334 17.5 17.2141 17.5 15.8334V8.75008H2.5ZM4.16667 15.0001C4.16667 14.5398 4.53976 14.1667 5 14.1667H10.8333C11.2936 14.1667 11.6667 14.5398 11.6667 15.0001C11.6667 15.4603 11.2936 15.8334 10.8333 15.8334H5C4.53976 15.8334 4.16667 15.4603 4.16667 15.0001ZM13.3333 14.1667C12.8731 14.1667 12.5 14.5398 12.5 15.0001C12.5 15.4603 12.8731 15.8334 13.3333 15.8334H15C15.4602 15.8334 15.8333 15.4603 15.8333 15.0001C15.8333 14.5398 15.4602 14.1667 15 14.1667H13.3333Z" fill="#667185"/>
<path d="M14.1667 2.50008C14.1667 2.03984 13.7936 1.66675 13.3333 1.66675C12.8731 1.66675 12.5 2.03984 12.5 2.50008V3.75008H14.1667V2.50008Z" fill="#667185"/>
</svg>
