<svg width="20" height="20" viewBox="0 0 20 20" fill="none" xmlns="http://www.w3.org/2000/svg">
<path d="M10.8333 10.0001C10.8333 9.53984 10.4602 9.16675 9.99996 9.16675C9.53972 9.16675 9.16663 9.53984 9.16663 10.0001C9.16663 10.4603 9.53972 10.8334 9.99996 10.8334C10.4602 10.8334 10.8333 10.4603 10.8333 10.0001Z" fill="#667185"/>
<path fill-rule="evenodd" clip-rule="evenodd" d="M4.16663 4.16675H15.8333C17.214 4.16675 18.3333 5.28604 18.3333 6.66675V13.3334C18.3333 14.7141 17.214 15.8334 15.8333 15.8334H4.16663C2.78591 15.8334 1.66663 14.7141 1.66663 13.3334V6.66675C1.66663 5.28604 2.78591 4.16675 4.16663 4.16675ZM4.16663 5.41675C3.70639 5.41675 3.33329 5.78984 3.33329 6.25008C3.33329 6.71032 3.70639 7.08341 4.16663 7.08341H5.83329C6.29353 7.08341 6.66663 6.71032 6.66663 6.25008C6.66663 5.78984 6.29353 5.41675 5.83329 5.41675H4.16663ZM13.3333 6.25008C13.3333 5.78984 13.7064 5.41675 14.1666 5.41675H15.8333C16.2935 5.41675 16.6666 5.78984 16.6666 6.25008C16.6666 6.71032 16.2935 7.08341 15.8333 7.08341H14.1666C13.7064 7.08341 13.3333 6.71032 13.3333 6.25008ZM4.16663 12.9167C3.70639 12.9167 3.33329 13.2898 3.33329 13.7501C3.33329 14.2103 3.70639 14.5834 4.16663 14.5834H5.83329C6.29353 14.5834 6.66663 14.2103 6.66663 13.7501C6.66663 13.2898 6.29353 12.9167 5.83329 12.9167H4.16663ZM13.3333 13.7501C13.3333 13.2898 13.7064 12.9167 14.1666 12.9167H15.8333C16.2935 12.9167 16.6666 13.2898 16.6666 13.7501C16.6666 14.2103 16.2935 14.5834 15.8333 14.5834H14.1666C13.7064 14.5834 13.3333 14.2103 13.3333 13.7501ZM9.99996 7.50008C11.3807 7.50008 12.5 8.61937 12.5 10.0001C12.5 11.3808 11.3807 12.5001 9.99996 12.5001C8.61925 12.5001 7.49996 11.3808 7.49996 10.0001C7.49996 8.61937 8.61925 7.50008 9.99996 7.50008Z" fill="#667185"/>
</svg>
