<svg width="20" height="20" viewBox="0 0 20 20" fill="none" xmlns="http://www.w3.org/2000/svg">
<path fill-rule="evenodd" clip-rule="evenodd" d="M10.8334 1.66675H5.83337C4.45266 1.66675 3.33337 2.78604 3.33337 4.16675V15.8334C3.33337 17.2141 4.45266 18.3334 5.83337 18.3334H14.1667C15.5474 18.3334 16.6667 17.2141 16.6667 15.8334V8.33342H14.1667C12.3258 8.33342 10.8334 6.84103 10.8334 5.00008V1.66675ZM16.4971 6.66675C16.3998 6.41616 16.262 6.18105 16.0873 5.97141L13.2497 2.56629C13.0392 2.3137 12.7838 2.10832 12.5 1.95792V5.00008C12.5 5.92056 13.2462 6.66675 14.1667 6.66675H16.4971ZM13.9646 15.6501C13.8146 15.6501 13.673 15.6001 13.548 15.4918C13.0563 15.0585 12.7813 14.8751 12.6396 14.7918C12.6184 14.8083 12.5953 14.8261 12.5709 14.8448L12.5705 14.8451C12.5085 14.8927 12.4386 14.9464 12.373 15.0001C11.823 15.4251 11.5146 15.6501 11.1813 15.6501C10.723 15.6501 10.023 15.4918 9.57296 14.6501L9.38962 14.9251C9.09796 15.3585 8.73962 15.5835 8.33962 15.5918C7.72296 15.5835 7.28129 15.1585 6.86462 14.6418C6.62296 14.9085 6.35629 15.1835 6.06462 15.4751C5.81462 15.7168 5.42296 15.7168 5.18129 15.4751C4.93962 15.2335 4.93962 14.8335 5.18129 14.5918C5.56462 14.2085 5.88129 13.8668 6.14796 13.5668C5.80629 12.9335 5.47296 12.1251 5.45629 11.4168C5.44796 10.7835 5.63962 10.2335 6.00629 9.85845C6.28129 9.57512 6.63962 9.41679 7.00629 9.41679C7.77296 9.41679 8.55629 9.65012 8.55629 11.4085C8.55629 12.0668 8.26462 12.8085 7.66462 13.6585L7.73962 13.7585C8.02296 14.1335 8.18962 14.2751 8.27296 14.3335C8.27939 14.3238 8.28707 14.3142 8.2955 14.3035C8.30892 14.2867 8.32427 14.2674 8.33962 14.2418L9.26462 12.8751C9.41462 12.6585 9.67296 12.5585 9.93129 12.6168C10.1813 12.6751 10.373 12.8918 10.4063 13.1418C10.5396 14.2085 10.873 14.3835 11.073 14.4085C11.2063 14.3251 11.448 14.1418 11.598 14.0251C12.0563 13.6668 12.273 13.5085 12.5563 13.5085C12.9146 13.5085 13.3563 13.6918 14.3563 14.5751C14.6146 14.8001 14.6396 15.2001 14.4146 15.4585C14.2896 15.6001 14.1146 15.6668 13.948 15.6668L13.9646 15.6501ZM7.21462 10.6335C7.21462 10.6335 7.09796 10.6501 7.02296 10.6501C7.00629 10.6501 6.96462 10.6668 6.91462 10.7168C6.85629 10.7751 6.71462 10.9668 6.72296 11.3835C6.72296 11.6668 6.83962 12.0335 6.98962 12.4001C7.26462 11.9168 7.32296 11.5918 7.32296 11.3918C7.32296 10.7835 7.21462 10.6418 7.21462 10.6418V10.6335ZM5.97335 6.25008H9.30668C9.64835 6.25008 9.93168 5.96675 9.93168 5.62508C9.93168 5.28341 9.64835 5.00008 9.30668 5.00008H5.97335C5.63168 5.00008 5.34835 5.28341 5.34835 5.62508C5.34835 5.96675 5.63168 6.25008 5.97335 6.25008Z" fill="#667185"/>
</svg>
